<svg width="111" height="87" viewBox="0 0 111 87" fill="none" xmlns="http://www.w3.org/2000/svg">
<g id="Group 650">
<g id="Group 647">
<g id="Ellipse 8" opacity="0.67" filter="url(#filter0_f_240_1539)">
<path d="M67.0014 28.5273C73.681 33.4772 89.3559 38.7259 83.3277 44.2106C77.2995 49.6952 42.8437 65.3626 28.4973 59.3066C21.8178 54.3568 34.4816 38.419 40.5098 32.9343C46.538 27.4497 60.3219 23.5775 67.0014 28.5273Z" fill="url(#paint0_linear_240_1539)" fill-opacity="0.3"/>
</g>
<g id="Union" filter="url(#filter1_ii_240_1539)">
<path fill-rule="evenodd" clip-rule="evenodd" d="M56.6641 49.9033V49.9037H41.4342C36.074 49.9037 31.7286 45.5584 31.7286 40.1981C31.7286 34.8378 36.074 30.4924 41.4342 30.4924H44.1964C46.7363 30.4924 49.0989 31.252 51.0694 32.5563C53.8604 26.25 60.1727 21.85 67.5128 21.85H71.4591C79.2058 21.85 85.4858 28.1299 85.4858 35.8766C85.4858 43.6233 79.2058 49.9033 71.4591 49.9033H56.6641Z" fill="white"/>
</g>
</g>
</g>
<defs>
<filter id="filter0_f_240_1539" x="0.986277" y="0.632517" width="109.311" height="85.6602" filterUnits="userSpaceOnUse" color-interpolation-filters="sRGB">
<feFlood flood-opacity="0" result="BackgroundImageFix"/>
<feBlend mode="normal" in="SourceGraphic" in2="BackgroundImageFix" result="shape"/>
<feGaussianBlur stdDeviation="12.8083" result="effect1_foregroundBlur_240_1539"/>
</filter>
<filter id="filter1_ii_240_1539" x="21.482" y="13.3111" width="68.5579" height="42.8545" filterUnits="userSpaceOnUse" color-interpolation-filters="sRGB">
<feFlood flood-opacity="0" result="BackgroundImageFix"/>
<feBlend mode="normal" in="SourceGraphic" in2="BackgroundImageFix" result="shape"/>
<feColorMatrix in="SourceAlpha" type="matrix" values="0 0 0 0 0 0 0 0 0 0 0 0 0 0 0 0 0 0 127 0" result="hardAlpha"/>
<feOffset dx="4.55407" dy="-8.53888"/>
<feGaussianBlur stdDeviation="8.53888"/>
<feComposite in2="hardAlpha" operator="arithmetic" k2="-1" k3="1"/>
<feColorMatrix type="matrix" values="0 0 0 0 0 0 0 0 0 0 0 0 0 0 0 0 0 0 0.2 0"/>
<feBlend mode="normal" in2="shape" result="effect1_innerShadow_240_1539"/>
<feColorMatrix in="SourceAlpha" type="matrix" values="0 0 0 0 0 0 0 0 0 0 0 0 0 0 0 0 0 0 127 0" result="hardAlpha"/>
<feOffset dx="-10.2467" dy="6.26184"/>
<feGaussianBlur stdDeviation="8.53888"/>
<feComposite in2="hardAlpha" operator="arithmetic" k2="-1" k3="1"/>
<feColorMatrix type="matrix" values="0 0 0 0 1 0 0 0 0 1 0 0 0 0 1 0 0 0 1 0"/>
<feBlend mode="normal" in2="effect1_innerShadow_240_1539" result="effect2_innerShadow_240_1539"/>
</filter>
<linearGradient id="paint0_linear_240_1539" x1="35.591" y1="61.7318" x2="66.1571" y2="19.9554" gradientUnits="userSpaceOnUse">
<stop stop-color="#254659"/>
<stop offset="1" stop-color="#023553"/>
</linearGradient>
</defs>
</svg>
