<svg width="188" height="146" viewBox="0 0 188 146" fill="none" xmlns="http://www.w3.org/2000/svg">
<g id="WeatherIcon - 2-40">
<g id="Group Moon">
<path id="Subtraction 1" d="M41.1634 16.0596C43.6861 16.059 46.2023 16.3139 48.6736 16.8204C53.4432 17.8028 57.9717 19.718 61.9987 22.456C67.5778 26.2375 72.0353 31.452 74.9027 37.5515C77.7701 43.651 78.9416 50.4103 78.2939 57.1189C77.6462 63.8276 75.2033 70.238 71.222 75.6763C67.2407 81.1146 61.868 85.38 55.6685 88.0243C53.4149 88.9819 51.0716 89.7131 48.6733 90.207C43.4727 91.2615 38.1072 91.1957 32.9341 90.0141C27.7609 88.8324 22.899 86.562 18.6721 83.3541C14.4451 80.1461 10.9503 76.0743 8.42041 71.4099C5.8905 66.7454 4.38356 61.5954 3.99998 56.3029C8.0779 57.2573 12.3139 57.3186 16.4178 56.4828C20.1004 55.7286 23.5984 54.2567 26.7123 52.151C31.3411 49.0261 34.9644 44.6259 37.1429 39.4835C37.879 37.7418 38.4409 35.9316 38.8203 34.0792C39.629 30.1103 39.599 26.0162 38.7325 22.0595C38.2966 20.081 37.6519 18.1543 36.8093 16.3119C38.2546 16.1437 39.7084 16.0595 41.1634 16.0596Z" fill="#713FFD"/>
<g id="Ellipse 2" filter="url(#filter0_f_240_1497)">
<path d="M66.3804 27.6379C58.0152 20.1059 47.0567 18.6393 41.9038 24.3622C36.751 30.085 39.355 40.8302 47.7201 48.3622C56.0852 55.8942 67.0437 57.3607 72.1966 51.6379C77.3495 45.915 74.7455 35.1698 66.3804 27.6379Z" fill="#A586FC"/>
</g>
</g>
<g id="Group Cloud 2">
<g id="Group" filter="url(#filter1_d_240_1497)">
<g id="Union shadow">
<path id="Vector" d="M114.841 114H45.9493C39.2663 113.995 32.8443 111.405 28.0278 106.772C23.2113 102.139 20.3737 95.8225 20.109 89.1447C19.8443 82.4669 22.173 75.9457 26.6077 70.9461C31.0424 65.9464 37.2392 62.8562 43.9009 62.3221C44.8509 55.6141 47.88 49.3727 52.5622 44.476C57.2444 39.5793 63.3439 36.2737 70.0027 35.0244C76.6615 33.7751 83.5444 34.6448 89.6831 37.5112C95.8219 40.3777 100.907 45.0966 104.224 51.0041C110.308 48.8981 116.881 48.6521 123.105 50.2973C129.33 51.9425 134.923 55.4045 139.171 60.2416C143.419 65.0786 146.131 71.0716 146.959 77.456C147.788 83.8404 146.695 90.3269 143.822 96.088C142.136 101.293 138.844 105.83 134.419 109.048C129.994 112.266 124.664 114 119.192 114H114.841Z" fill="url(#paint0_linear_240_1497)"/>
<path id="Vector_2" d="M119.193 113.64C121.971 113.64 124.702 113.196 127.311 112.322C129.834 111.476 132.202 110.241 134.351 108.652C136.474 107.082 138.336 105.2 139.884 103.061C141.451 100.894 142.661 98.511 143.48 95.9772L143.488 95.9512L143.501 95.9268C144.59 93.7503 145.429 91.4478 145.994 89.0835C146.575 86.6506 146.87 84.1365 146.87 81.6112C146.87 79.4379 146.651 77.266 146.219 75.1559C145.798 73.0997 145.171 71.0771 144.353 69.1443C143.55 67.2466 142.557 65.4161 141.4 63.7039C140.254 62.0079 138.938 60.4129 137.489 58.9635C136.039 57.514 134.445 56.1981 132.748 55.0522C131.036 53.8955 129.206 52.9019 127.308 52.0993C125.375 51.2818 123.353 50.6539 121.296 50.2331C119.186 49.8013 117.015 49.5824 114.841 49.5824C111.243 49.5824 107.71 50.1746 104.343 51.3426L104.058 51.4412L103.911 51.179C101.17 46.3057 97.1836 42.213 92.382 39.3434C89.9538 37.8922 87.345 36.7707 84.6281 36.0102C81.8252 35.2256 78.9138 34.8278 75.9748 34.8278C72.0217 34.8278 68.1628 35.5392 64.5054 36.9424C60.9722 38.2979 57.7309 40.256 54.8718 42.7623C52.029 45.2541 49.67 48.1943 47.86 51.501C46.0057 54.889 44.7936 58.5461 44.2577 62.3707L44.2176 62.6569L43.9294 62.6795C40.7055 62.9318 37.6038 63.7806 34.7104 65.2023C31.8989 66.5836 29.3884 68.452 27.2485 70.7555C22.8515 75.4888 20.43 81.6557 20.43 88.1203C20.43 91.5656 21.1047 94.9076 22.4353 98.0536C23.0748 99.5656 23.8665 101.024 24.7881 102.388C25.7011 103.74 26.7496 105.01 27.9045 106.165C29.0594 107.32 30.3302 108.369 31.6816 109.282C33.0459 110.203 34.5043 110.995 36.0163 111.635C39.1623 112.965 42.5043 113.64 45.9496 113.64H114.841H119.193ZM119.193 114H114.841H45.9496C31.6568 114 20.0701 102.413 20.0701 88.1203C20.0701 74.5167 30.5657 63.3646 43.9013 62.3207C46.1071 46.5803 59.6263 34.4679 75.9748 34.4679C88.1033 34.4679 98.6746 41.1339 104.225 51.0026C107.551 49.8491 111.123 49.2225 114.841 49.2225C132.729 49.2225 147.23 63.7236 147.23 81.6112C147.23 86.8147 146.003 91.7312 143.822 96.0879C140.462 106.482 130.705 114 119.193 114Z" fill="white" fill-opacity="0.5"/>
</g>
</g>
</g>
</g>
<defs>
<filter id="filter0_f_240_1497" x="19.2583" y="0.871178" width="75.5838" height="74.2577" filterUnits="userSpaceOnUse" color-interpolation-filters="sRGB">
<feFlood flood-opacity="0" result="BackgroundImageFix"/>
<feBlend mode="normal" in="SourceGraphic" in2="BackgroundImageFix" result="shape"/>
<feGaussianBlur stdDeviation="10" result="effect1_foregroundBlur_240_1497"/>
</filter>
<filter id="filter1_d_240_1497" x="0.0700989" y="6.46789" width="187.16" height="139.532" filterUnits="userSpaceOnUse" color-interpolation-filters="sRGB">
<feFlood flood-opacity="0" result="BackgroundImageFix"/>
<feColorMatrix in="SourceAlpha" type="matrix" values="0 0 0 0 0 0 0 0 0 0 0 0 0 0 0 0 0 0 127 0" result="hardAlpha"/>
<feOffset dx="10" dy="2"/>
<feGaussianBlur stdDeviation="15"/>
<feColorMatrix type="matrix" values="0 0 0 0 0.501961 0 0 0 0 0.501961 0 0 0 0 0.501961 0 0 0 0.302 0"/>
<feBlend mode="normal" in2="BackgroundImageFix" result="effect1_dropShadow_240_1497"/>
<feBlend mode="normal" in="SourceGraphic" in2="effect1_dropShadow_240_1497" result="shape"/>
</filter>
<linearGradient id="paint0_linear_240_1497" x1="83.6586" y1="34.4688" x2="120.597" y2="123.776" gradientUnits="userSpaceOnUse">
<stop stop-color="white" stop-opacity="0.604"/>
<stop offset="1" stop-color="white" stop-opacity="0.2"/>
</linearGradient>
</defs>
</svg>
