<svg width="23" height="20" viewBox="0 0 23 20" fill="none" xmlns="http://www.w3.org/2000/svg">
<g id="Group 656">
<path id="Fill 1" fill-rule="evenodd" clip-rule="evenodd" d="M17.5 4.00001C16.9317 4.00001 17.7801 4.00001 17 4.00001C16 2 14 0 10.5 0C7 0 4.56176 2.12215 4 5.50001C1.78249 5.50001 0 7.74206 0 10C0.5 12.5 1 13.5 3.52173 14H17.6495C20.324 14 22.5 11.7835 22.5 9.05945C22.5 6.3354 20.1744 4.00001 17.5 4.00001ZM21.0998 8.86379C21.0998 10.869 19.4815 12.5 17.4916 12.5H4.33634C2.77226 12.5 1.4998 11.2181 1.4998 9.64235C1.4998 8.06616 2.77226 6.78392 4.33634 6.78392C4.44072 6.78392 4.55466 6.79226 4.69489 6.80934L5.15662 6.86733L5.20284 6.40337C5.48808 3.57156 7.8362 1.43607 10.6648 1.43607C12.979 1.43607 15.0558 2.91494 15.8331 5.11636L15.9801 5.53186L16.3988 5.398C16.7542 5.28519 17.1219 5.22798 17.4916 5.22798C19.4815 5.22798 21.0998 6.85899 21.0998 8.86379Z" fill="white"/>
<path id="Fill 2" fill-rule="evenodd" clip-rule="evenodd" d="M4.12327 16.0214C4.69571 17.0637 5.26815 18.1053 5.84118 19.1476C6.23951 19.8729 7.35218 19.2254 6.95326 18.4995C6.38083 17.4573 5.80839 16.415 5.23535 15.3728C4.83703 14.6474 3.72436 15.2949 4.12327 16.0214Z" fill="white"/>
<path id="Fill 3" fill-rule="evenodd" clip-rule="evenodd" d="M8.38542 16.0214C8.95783 17.0635 9.53023 18.1051 10.1026 19.1473C10.5015 19.8726 11.6141 19.2252 11.2152 18.4993C10.6428 17.4571 10.0704 16.4149 9.49743 15.3728C9.09914 14.6475 7.98594 15.2949 8.38542 16.0214Z" fill="white"/>
<path id="Fill 4" fill-rule="evenodd" clip-rule="evenodd" d="M12.8647 16.0213C13.4376 17.0633 14.01 18.1048 14.5823 19.1468C14.9805 19.8721 16.0936 19.2247 15.6948 18.4989C15.1224 17.4568 14.5495 16.4148 13.9772 15.3727C13.5789 14.6475 12.4658 15.2949 12.8647 16.0213Z" fill="white"/>
<path id="Fill 5" fill-rule="evenodd" clip-rule="evenodd" d="M17.1934 16.0213C17.7658 17.0633 18.3387 18.1047 18.911 19.1468C19.3093 19.872 20.4223 19.2247 20.0235 18.4989C19.4506 17.4568 18.8782 16.4148 18.3059 15.3727C17.9071 14.6475 16.7946 15.2949 17.1934 16.0213Z" fill="white"/>
</g>
</svg>
